<?xml version="1.0" encoding="UTF-8" standalone="no"?>
<!DOCTYPE svg PUBLIC "-//W3C//DTD SVG 1.1//EN" "http://www.w3.org/Graphics/SVG/1.1/DTD/svg11.dtd">
<svg width="100%" height="100%" viewBox="0 0 1864 1950" version="1.1" xmlns="http://www.w3.org/2000/svg" xmlns:xlink="http://www.w3.org/1999/xlink" xml:space="preserve" xmlns:serif="http://www.serif.com/" style="fill-rule:evenodd;clip-rule:evenodd;">
    <g>
        <g transform="matrix(1,0,0,1,-145.671,73.119)">
            <path d="M1133.25,113.24C1181.21,101.95 1230.81,98.16 1279.97,100.84C1321.32,103.15 1362.42,110.39 1401.93,122.86C1441.83,135.61 1480.25,154.42 1512.43,181.52C1561.04,173.27 1611.27,174.21 1659.49,184.59C1695.3,192.44 1730.79,205.34 1760.07,227.93C1774.51,239.31 1787.18,253.56 1794.29,270.69C1799.44,283.69 1801.67,298.18 1798.54,311.95C1795.93,326.04 1788.91,338.96 1779.86,349.93C1767.38,365.08 1751.09,376.62 1733.98,385.98C1717.42,394.87 1699.8,401.69 1681.75,406.82C1620.06,424.29 1553.95,425.49 1491.48,411.33C1459.58,433.4 1423.27,448.49 1386.02,458.88C1344.05,470.5 1300.57,476.44 1257.04,476.94C1207.08,477.64 1156.96,471.33 1108.93,457.44C1085.87,450.89 1063.53,441.97 1042.01,431.47C1007.34,434.01 972.38,433.47 937.92,428.71C904.75,423.92 871.66,416.08 841.28,401.64C827.65,394.98 814.65,386.78 803.63,376.3C795.53,367.87 788.39,357.97 785.68,346.41C781.68,332.49 785.43,317.23 793.35,305.39C800.22,294.74 809.96,286.29 820.44,279.3C838.32,267.26 858.54,259.17 879.08,252.9C899.9,246.79 921.22,242.35 942.75,239.69C954.75,212.98 974.97,190.69 998.13,173.11C1037.8,143.05 1085.05,124.45 1133.25,113.24M1083.94,136.07C1054.6,146.96 1026.33,161.31 1001.55,180.55C978.89,198.12 959.18,220.38 948.1,247.08C916.75,250.61 885.54,257.35 856.29,269.35C839.31,276.48 822.72,285.43 809.43,298.37C799.85,307.75 792.11,320.19 792.01,333.98C791.73,347.39 798.83,359.75 807.93,369.13C820.34,381.8 836.01,390.74 852.12,397.87C879.46,409.76 908.75,416.61 938.2,420.74C972.25,425.34 1006.81,426.17 1041.05,423.41C1044.76,422.97 1047.83,425.51 1051.06,426.91C1082.65,442.3 1116.5,452.78 1150.93,459.58C1191.09,467.44 1232.2,470.23 1273.06,468.5C1311.88,466.82 1350.59,460.98 1387.94,450.18C1424.08,439.71 1459.08,424.47 1490,402.85C1505.18,406.63 1520.65,409.13 1536.2,410.8C1577.3,415.07 1619.14,413.19 1659.54,404.39C1693.27,396.79 1726.7,384.54 1754.37,363.36C1769.07,351.85 1782.2,337.29 1788.43,319.42C1793.8,304.3 1792.99,287.22 1786.49,272.58C1778.95,255.4 1765.39,241.61 1750.41,230.67C1722.09,210.36 1688.51,198.69 1654.64,191.57C1607.77,182.14 1559.13,181.54 1512.01,189.58C1510.99,189.65 1509.78,190.04 1508.98,189.21C1470.62,155.91 1422.7,135.57 1373.91,123.01C1326.35,110.97 1276.99,106.53 1228.01,108.46C1179,110.52 1130.04,119.09 1083.94,136.07Z" style="fill:rgb(57,198,210);fill-rule:nonzero;stroke:rgb(57,198,210);stroke-width:0.09px;"/>
        </g>
        <g transform="matrix(1,0,0,1,-145.671,73.119)">
            <path d="M1083.94,136.07C1130.04,119.09 1179,110.52 1228.01,108.46C1276.99,106.53 1326.35,110.97 1373.91,123.01C1422.7,135.57 1470.62,155.91 1508.98,189.21C1509.78,190.04 1510.99,189.65 1512.01,189.58C1559.13,181.54 1607.77,182.14 1654.64,191.57C1688.51,198.69 1722.09,210.36 1750.41,230.67C1765.39,241.61 1778.95,255.4 1786.49,272.58C1792.99,287.22 1793.8,304.3 1788.43,319.42C1782.2,337.29 1769.07,351.85 1754.37,363.36C1726.7,384.54 1693.27,396.79 1659.54,404.39C1619.14,413.19 1577.3,415.07 1536.2,410.8C1520.65,409.13 1505.18,406.63 1490,402.85C1459.08,424.47 1424.08,439.71 1387.94,450.18C1350.59,460.98 1311.88,466.82 1273.06,468.5C1232.2,470.23 1191.09,467.44 1150.93,459.58C1116.5,452.78 1082.65,442.3 1051.06,426.91C1047.83,425.51 1044.76,422.97 1041.05,423.41C1006.81,426.17 972.25,425.34 938.2,420.74C908.75,416.61 879.46,409.76 852.12,397.87C836.01,390.74 820.34,381.8 807.93,369.13C798.83,359.75 791.73,347.39 792.01,333.98C792.11,320.19 799.85,307.75 809.43,298.37C822.72,285.43 839.31,276.48 856.29,269.35C885.54,257.35 916.75,250.61 948.1,247.08C959.18,220.38 978.89,198.12 1001.55,180.55C1026.33,161.31 1054.6,146.96 1083.94,136.07Z" style="fill:rgb(228,241,244);fill-rule:nonzero;stroke:rgb(228,241,244);stroke-width:0.09px;"/>
        </g>
    </g>
    <g>
        <path d="M346.78,464.78C388.58,454.34 433.85,458.16 473.23,475.66C498.22,487.15 521.32,505.11 534.08,529.95C536.13,533.6 537.3,537.67 539.28,541.36C556.48,548.2 573.31,556.51 587.86,568.1C591.02,570.59 593.83,573.56 597.11,575.85C611.75,580.66 625.99,587.24 638.18,596.78C649.04,605.62 658.72,616.9 662.12,630.8C665.86,642.87 663.54,656.04 657.96,667.17C653.16,676.48 645.69,684.1 637.63,690.65C621.37,703.1 601.87,710.7 581.98,715.1C559.13,720.32 535.34,721.31 512.1,718.33C500.56,716.94 489.29,714.05 478.1,711.02C413.11,722.93 345.8,723.27 280.88,710.62C275.3,709.7 269.82,707.77 264.18,707.41C226.03,715.04 185.87,713.28 148.79,701.31C132.48,695.82 116.58,687.97 104.04,675.98C94.59,666.86 88.05,654.24 88.01,640.93C88.46,627.54 95.33,615.04 105.03,606.06C120.61,591.72 140.7,583.55 160.87,578.05C167.05,572.49 173.18,566.76 180.17,562.18C202.39,547.18 227.84,537.74 253.57,530.74C260.55,516.84 270.86,504.69 283.06,495.09C301.57,480.2 323.74,470.24 346.78,464.78M336.72,475.71C308.83,484.62 282.13,500.84 265.68,525.59C262.97,529.27 261.44,533.71 258.7,537.34C230.19,545.34 201.42,555.43 177.79,573.83C174.06,576.72 170.67,580 167.36,583.35C165.21,585.66 161.89,585.9 159.04,586.81C146.97,590.19 135.18,594.88 124.45,601.4C115.14,607.11 106.42,614.38 100.9,623.94C96.35,631.71 94.7,641.28 97.15,650.02C100.03,660.88 107.93,669.6 116.65,676.3C130.66,686.82 147.29,693.26 164.15,697.59C196.8,705.66 231.21,705.92 264.15,699.45C270.18,699.71 275.96,701.92 281.92,702.82C307.32,707.83 333.14,710.59 359,711.6C398.1,713.01 437.41,710.59 475.87,703.25C478.31,702.68 480.77,703.33 483.1,704.09C490.6,706.48 498.32,708.16 506.09,709.45C539.08,714.6 573.69,712.16 604.91,699.92C619.7,693.95 633.94,685.54 644.32,673.24C651.85,664.33 656.76,652.75 655.9,640.94C655.13,627.7 647.54,615.82 637.93,607.08C625.77,595.99 610.68,588.57 595.1,583.6C590.39,582.31 587.66,577.93 583.9,575.17C568.73,562.78 550.84,554.29 532.67,547.27C530.58,540.78 527.85,534.49 524.27,528.68C509.84,504.92 485.71,488.54 460.1,478.78C420.87,464.07 376.66,463.19 336.72,475.71Z" style="fill:rgb(57,198,210);fill-rule:nonzero;stroke:rgb(57,198,210);stroke-width:0.09px;"/>
        <path d="M336.72,475.71C376.66,463.19 420.87,464.07 460.1,478.78C485.71,488.54 509.84,504.92 524.27,528.68C527.85,534.49 530.58,540.78 532.67,547.27C550.84,554.29 568.73,562.78 583.9,575.17C587.66,577.93 590.39,582.31 595.1,583.6C610.68,588.57 625.77,595.99 637.93,607.08C647.54,615.82 655.13,627.7 655.9,640.94C656.76,652.75 651.85,664.33 644.32,673.24C633.94,685.54 619.7,693.95 604.91,699.92C573.69,712.16 539.08,714.6 506.09,709.45C498.32,708.16 490.6,706.48 483.1,704.09C480.77,703.33 478.31,702.68 475.87,703.25C437.41,710.59 398.1,713.01 359,711.6C333.14,710.59 307.32,707.83 281.92,702.82C275.96,701.92 270.18,699.71 264.15,699.45C231.21,705.92 196.8,705.66 164.15,697.59C147.29,693.26 130.66,686.82 116.65,676.3C107.93,669.6 100.03,660.88 97.15,650.02C94.7,641.28 96.35,631.71 100.9,623.94C106.42,614.38 115.14,607.11 124.45,601.4C135.18,594.88 146.97,590.19 159.04,586.81C161.89,585.9 165.21,585.66 167.36,583.35C170.67,580 174.06,576.72 177.79,573.83C201.42,555.43 230.19,545.34 258.7,537.34C261.44,533.71 262.97,529.27 265.68,525.59C282.13,500.84 308.83,484.62 336.72,475.71Z" style="fill:rgb(228,241,244);fill-rule:nonzero;stroke:rgb(228,241,244);stroke-width:0.09px;"/>
    </g>
    <g>
        <path d="M1482.74,679.79C1524.55,669.34 1569.84,673.15 1609.23,690.67C1633.99,702.05 1656.86,719.75 1669.71,744.23C1671.93,748.11 1673.2,752.43 1675.29,756.36C1694.67,764.08 1713.69,773.67 1729.28,787.74C1730.73,788.9 1731.93,790.53 1733.79,791.13C1752.16,797.18 1770.22,806.13 1783.53,820.49C1796.4,833.46 1803.47,853.29 1798.12,871.22C1794.02,887.42 1781.83,900.16 1768.43,909.42C1749.29,922.32 1726.75,929.17 1704.13,932.74C1681.85,936.08 1658.99,935.74 1636.86,931.52C1628.76,930.36 1620.99,927.24 1612.99,926.1C1568.29,934.55 1522.48,936.8 1477.12,933.61C1452.52,931.88 1428.03,928.39 1404,922.85C1400.37,921.64 1396.74,923.22 1393.15,923.7C1368.28,927.95 1342.72,928.08 1317.8,924.2C1296.92,920.74 1276.09,914.99 1257.72,904.23C1243.38,895.8 1229.74,883.61 1225.55,866.91C1220.73,850.71 1228.27,833.32 1240,822.06C1254.26,808.48 1272.68,800.07 1291.43,794.68C1293.87,793.83 1296.85,793.75 1298.63,791.61C1311.91,778.41 1328.27,768.75 1345.29,761.18C1359.58,754.79 1374.46,749.8 1389.58,745.74C1397.28,730.3 1409.16,717.18 1423.03,707.01C1440.7,693.82 1461.33,684.87 1482.74,679.79M1512.55,682.79C1495.65,684.27 1478.92,687.97 1463.08,694.09C1435.26,704.81 1409.11,723.68 1395.73,750.99C1395.16,752.6 1393.34,752.8 1391.95,753.26C1373.97,758.04 1356.32,764.26 1339.67,772.61C1326.64,779.25 1314.04,787.21 1303.88,797.85C1302.54,799.36 1300.75,800.35 1298.8,800.79C1287.05,803.82 1275.56,808.01 1264.9,813.83C1254.5,819.56 1244.6,826.93 1238.07,837C1232.9,844.86 1230.59,854.8 1232.91,864.03C1235.18,873.93 1241.83,882.21 1249.42,888.69C1261.66,898.97 1276.56,905.56 1291.73,910.24C1327.05,920.82 1364.93,921.29 1401,914.4C1409.89,915.85 1418.64,918.25 1427.58,919.62C1483.48,929.11 1540.94,929.43 1596.97,920.85C1603.36,920.27 1609.63,917.77 1616.07,918.26C1646.24,927.75 1678.74,929.39 1709.83,923.78C1729.12,920.15 1748.17,913.64 1764.45,902.48C1774.56,895.45 1783.74,886.35 1788.6,874.85C1792.63,865.54 1793.11,854.74 1789.74,845.17C1786.24,834.81 1779.01,826.13 1770.68,819.24C1758.89,809.54 1744.84,802.93 1730.36,798.34C1727.1,797.37 1724.98,794.56 1722.52,792.44C1707,778.67 1687.85,769.98 1668.87,762.16C1665.86,754.48 1662.71,746.78 1657.94,740C1647.14,723.91 1631.69,711.35 1614.7,702.26C1583.63,685.64 1547.47,679.76 1512.55,682.79Z" style="fill:rgb(57,198,210);fill-rule:nonzero;stroke:rgb(57,198,210);stroke-width:0.09px;"/>
        <path d="M1512.55,682.79C1547.47,679.76 1583.63,685.64 1614.7,702.26C1631.69,711.35 1647.14,723.91 1657.94,740C1662.71,746.78 1665.86,754.48 1668.87,762.16C1687.85,769.98 1707,778.67 1722.52,792.44C1724.98,794.56 1727.1,797.37 1730.36,798.34C1744.84,802.93 1758.89,809.54 1770.68,819.24C1779.01,826.13 1786.24,834.81 1789.74,845.17C1793.11,854.74 1792.63,865.54 1788.6,874.85C1783.74,886.35 1774.56,895.45 1764.45,902.48C1748.17,913.64 1729.12,920.15 1709.83,923.78C1678.74,929.39 1646.24,927.75 1616.07,918.26C1609.63,917.77 1603.36,920.27 1596.97,920.85C1540.94,929.43 1483.48,929.11 1427.58,919.62C1418.64,918.25 1409.89,915.85 1401,914.4C1364.93,921.29 1327.05,920.82 1291.73,910.24C1276.56,905.56 1261.66,898.97 1249.42,888.69C1241.83,882.21 1235.18,873.93 1232.91,864.03C1230.59,854.8 1232.9,844.86 1238.07,837C1244.6,826.93 1254.5,819.56 1264.9,813.83C1275.56,808.01 1287.05,803.82 1298.8,800.79C1300.75,800.35 1302.54,799.36 1303.88,797.85C1314.04,787.21 1326.64,779.25 1339.67,772.61C1356.32,764.26 1373.97,758.04 1391.95,753.26C1393.34,752.8 1395.16,752.6 1395.73,750.99C1409.11,723.68 1435.26,704.81 1463.08,694.09C1478.92,687.97 1495.65,684.27 1512.55,682.79Z" style="fill:rgb(228,241,244);fill-rule:nonzero;stroke:rgb(228,241,244);stroke-width:0.09px;"/>
    </g>
    <g>
        <path d="M873.21,818.28C908.67,801.7 951.59,801.89 986.71,819.28C1001.71,827.05 1015.5,838.96 1021.6,855.11C1024.76,863.51 1025.94,872.73 1024.04,881.57C1039.37,890.08 1052.25,903.88 1057.34,920.89C1058.45,924.37 1058.4,929.03 1062.24,930.8C1066.12,932.32 1070.43,932.21 1074.31,933.82C1078.9,935.76 1083.78,937.16 1087.98,939.93C1091.42,941.98 1094.8,944.22 1098.62,945.52C1101.8,946.56 1103.68,949.56 1106.47,951.24C1109.92,953.54 1113.99,955.05 1116.77,958.24C1119.95,962.09 1124.54,964.38 1127.84,968.13C1133.62,974.72 1140.36,980.45 1145.25,987.8C1148.69,993.01 1153.02,997.68 1155.5,1003.47C1159.06,1009.76 1161.85,1016.44 1165.13,1022.89C1168.79,1029.4 1170.76,1036.65 1172.58,1043.85C1176.03,1052.28 1177.75,1061.23 1179.86,1070.06C1181.74,1078.62 1182.86,1087.34 1183.39,1096.09C1184.34,1103.24 1185.08,1110.99 1181.92,1117.72C1179.53,1123.83 1173.71,1127.92 1167.66,1129.94C1161.17,1132.83 1154.1,1134.27 1147,1133.95C1135.7,1134.97 1124.26,1135.59 1112.98,1134.05C1106.24,1133.89 1099.66,1132.26 1092.94,1131.9C1088.87,1131.69 1085.01,1130.2 1080.97,1129.87C1078.6,1129.66 1076.42,1128.71 1074.22,1127.93C1067.94,1125.88 1061.34,1124.79 1055.27,1122.13C1056.34,1127.35 1055.28,1132.67 1055.83,1137.93C1055.94,1142.86 1055.44,1147.78 1055.58,1152.72C1054.33,1158.73 1055.68,1164.98 1053.94,1170.91C1052.48,1176.82 1052.71,1183.03 1051.09,1188.91C1048.55,1197.93 1047.11,1207.23 1044.21,1216.15C1040.24,1226.34 1036.47,1236.67 1031.28,1246.33C1028.22,1251.27 1026.04,1256.76 1022.04,1261.08C1018.93,1266.36 1013.78,1269.96 1010.51,1275.12C1025.5,1284.79 1039.21,1296.79 1049.28,1311.62C1058.64,1324.86 1064.12,1340.83 1064.95,1357.02C1065.4,1371.38 1061.38,1385.63 1054.93,1398.38C1067.25,1401.23 1078.3,1409.43 1084.19,1420.66C1086.16,1424.16 1086.58,1428.45 1089.32,1431.54C1101.48,1445.97 1112.06,1461.82 1120.05,1478.95C1137.12,1515.41 1142.79,1557.53 1133.62,1596.91C1125.65,1634.66 1105.19,1668.99 1078.42,1696.45C1065.58,1709.43 1051.27,1720.95 1036,1730.95C1034.11,1732.34 1031.18,1733.19 1030.93,1735.92C1025.49,1760.59 1010.96,1783.87 989.21,1797.26C985.89,1799.47 982.09,1801.24 978,1801.02C958.32,1800.97 938.65,1801.04 918.98,1800.98C913.69,1801 909.33,1797.6 905.13,1794.83C899.07,1790.58 893.35,1785.74 888.73,1779.93C873.79,1781.08 858.77,1781.31 843.81,1780.54C837.47,1788.07 829.59,1794.23 821.07,1799.1C817.13,1801.44 812.41,1801 808.02,1801.02C792.01,1800.99 776.01,1800.99 760,1801.02C755.63,1801 750.95,1801.45 747.02,1799.15C724.99,1787.04 709.84,1764.78 703.23,1740.87C672.24,1723.28 644,1700.08 623.14,1671.01C598.92,1638.26 584.86,1597.82 585.01,1556.98C585.33,1520.98 596.55,1485.28 616.16,1455.14C621.47,1446.92 627.34,1439.06 633.65,1431.58C636.38,1428.5 636.83,1424.22 638.78,1420.72C644.78,1409.08 656.33,1401.05 668.93,1398.02C663.22,1386.88 659.64,1374.56 659.05,1362.03C658.63,1343.89 664.64,1325.76 675.13,1311.02C686.82,1293.91 703.44,1280.95 721.02,1270.34C715.57,1263.52 710.23,1256.55 706.15,1248.81C697.99,1237.27 694.38,1223.49 689.42,1210.47C686.43,1202.71 685.92,1194.32 683.54,1186.39C682.71,1182.25 681.06,1178.27 680.94,1174.01C680.73,1168.66 679.26,1163.44 679.2,1158.09C679.37,1151.37 677.5,1144.76 679.05,1138.1C673.45,1139.97 667.61,1141.05 662.12,1143.24C658.46,1144.14 654.66,1144.33 651.03,1145.38C633.68,1147.37 616.22,1150.23 598.71,1148.41C592.11,1147.51 585.3,1148.5 578.88,1146.32C572.36,1144.03 565.18,1141.96 560.74,1136.26C554.66,1128.64 555.4,1118.2 556.71,1109.11C557.29,1095.18 560.6,1081.59 563.91,1068.11C565.12,1063.74 567,1059.61 568.18,1055.25C569.64,1048.11 572.39,1041.29 575.87,1034.91C580.67,1025.2 584.75,1015 591.46,1006.41C595.26,1000.95 599.2,995.54 603.88,990.79C607.64,987.55 610.54,983.48 614.2,980.13C616.9,977.52 620.29,975.72 622.71,972.8C626.61,968.07 633.04,966.66 637.22,962.24C639.8,959.41 643.82,959 646.93,956.97C651.61,954.1 656.3,951.18 661.55,949.46C668.93,946.01 677.19,945.59 684.9,943.2C685.61,941.6 686.34,940.02 687.08,938.45C680.9,927.7 677.28,915.42 677.03,903.01C677.08,885.77 683.74,868.82 694.7,855.59C712.02,834.42 737.48,821.34 763.57,814.42C799.42,804.65 838.11,806.18 873.21,818.28M873.82,826.91C841.64,814.91 805.97,812.98 772.5,820.29C747.64,825.88 723.26,836.94 705.4,855.5C694.11,867.18 686.02,882.52 685.13,898.92C684.19,912.92 688.65,926.93 696.47,938.47C693.04,943.29 690.47,949.04 691.07,955.1C691.72,964.17 698.17,971.7 705.58,976.41C718.4,984.62 734.27,987.05 749.24,985.56C759.06,1002.34 777.68,1011.65 796.01,1016C818.48,1021.12 842.6,1019.81 864.07,1011.23C875.81,1018.48 889.16,1022.62 902.55,1025.61C929.55,1031.31 957.46,1032.28 984.88,1029.51C992.62,1028.86 1000.21,1026.87 1008,1026.81C1020.06,1026.04 1032.01,1022.62 1042.45,1016.49C1056.3,1008.46 1067.61,994.92 1070.32,978.85C1073.22,963.08 1066.9,946.57 1055.5,935.57C1053.99,933.88 1051.55,932.63 1051.42,930.12C1048.36,909.98 1032.66,894.12 1014.83,885.67C1016.88,879.18 1017.63,872.23 1016.36,865.51C1014.01,852.29 1005.05,841.2 994.46,833.42C979.62,822.58 961.54,816.85 943.42,814.79C919.72,812.23 895.06,815.83 873.82,826.91M1070.78,941.98C1075.82,950.8 1078.84,960.85 1079,971.03C1078.7,986.36 1072.2,1001.57 1060.99,1012.1C1053.66,1019.95 1044.02,1025.05 1034.32,1029.37C1040.56,1043.15 1043.63,1057.99 1047.44,1072.54C1049.52,1077.8 1049.58,1083.57 1050.82,1089.05C1051.34,1092.83 1053.4,1096.34 1052.88,1100.27C1053.82,1102.93 1054.23,1105.74 1053.89,1108.58C1054.43,1110.1 1055.01,1111.63 1055.65,1113.15C1056.14,1113.24 1057.14,1113.41 1057.64,1113.49C1061.06,1114.81 1064.51,1116.04 1067.98,1117.25C1075.88,1119.92 1083.99,1121.71 1092.19,1123.19C1097.01,1123.68 1101.76,1124.81 1106.65,1124.68L1106.69,1125.28C1110.39,1125.42 1114.13,1125.42 1117.79,1126.14C1125.17,1126.55 1132.62,1126.74 1139.96,1125.74C1147.31,1125.54 1154.96,1125.71 1161.85,1122.72C1162.44,1122.64 1163.61,1122.47 1164.19,1122.39C1165.37,1121.81 1166.6,1121.28 1167.82,1120.74C1170.27,1119.3 1172.29,1117.29 1173.95,1115C1175.66,1110.21 1176.72,1105.02 1175.78,1099.96C1175.07,1095.88 1174.95,1091.75 1174.51,1087.66C1172.78,1080.36 1172.78,1072.75 1170.59,1065.54C1168.24,1055.23 1164.73,1045.26 1161.56,1035.19C1155.64,1022.3 1150.15,1009.02 1141.67,997.53C1135.36,988.48 1128.46,979.79 1120.22,972.4L1119.78,972.52C1119.52,972.22 1119,971.61 1118.74,971.31C1115.48,968.57 1112.24,965.81 1108.86,963.24C1102.92,958.63 1096.54,954.65 1090.12,950.78C1086.8,949 1083.44,947.32 1080.09,945.63C1079.02,945.14 1077.98,944.67 1076.95,944.21C1074.91,943.43 1072.82,942.67 1070.78,941.98M672.84,954.79C671.84,955.11 670.85,955.43 669.87,955.76C668.9,956.08 667.93,956.41 666.97,956.74C665.66,957.23 664.35,957.72 663.06,958.24C661.99,958.68 660.94,959.14 659.91,959.61C656.55,961.32 653.19,963.01 649.87,964.78C649.02,965.29 648.17,965.81 647.33,966.33C642.03,969.53 636.83,972.93 631.88,976.65C628.24,979.43 624.73,982.37 621.23,985.34C620.98,985.63 620.48,986.23 620.22,986.53L619.78,986.4C616.07,990.14 612.02,993.57 608.8,997.77C600.63,1007.86 592.76,1018.38 587.27,1030.22C583.21,1039.05 578.31,1047.61 575.94,1057.12C571.62,1070.03 567.75,1083.23 566.45,1096.84C564.93,1102.43 565.22,1108.27 564.22,1113.95C563.27,1119 564.35,1124.18 566.02,1128.96C567.23,1130.43 568.47,1131.88 569.78,1133.29C570.61,1133.76 571.45,1134.24 572.28,1134.75C574.15,1135.69 576.12,1136.41 578.18,1136.85C584.81,1139.4 592,1139.67 599.03,1139.69C606.71,1140.64 614.49,1140.63 622.21,1140.14C625.87,1139.42 629.63,1139.42 633.35,1139.28L633.36,1138.67C638.24,1138.81 643,1137.68 647.82,1137.19C656.01,1135.7 664.13,1133.93 672.02,1131.25C674.64,1130.09 679.5,1130 679,1126.04C679.29,1121.64 678.83,1117.23 679.09,1112.83C680.59,1103.25 681.78,1093.62 683.56,1084.09C686.18,1074.46 688.16,1064.7 690.82,1055.09C691.69,1047.45 696.19,1040.97 697.85,1033.56C700.23,1030.5 699.8,1026.34 702.12,1023.29C705.64,1016.18 708.6,1008.8 711.9,1001.57C713.77,997.86 714.72,993.71 717.32,990.39C709.76,988.13 702.58,984.57 696.46,979.56C688.05,973.14 683.07,962.77 682.86,952.23C682.17,952.36 680.8,952.6 680.11,952.72C677.69,953.45 675.27,954.14 672.84,954.79M715.78,1013.84C714.51,1016.9 713.19,1019.94 711.78,1022.94C710.69,1025.23 709.77,1027.59 708.75,1029.93C706.47,1035.56 704.17,1041.19 702.15,1046.94C698.38,1056.31 696.59,1066.29 694.17,1076.06C693.27,1079.35 692.73,1082.73 692.21,1086.11C690.67,1092 690.16,1098.1 689.13,1104.09C688.51,1107.03 688.31,1110.04 688.1,1113.04C686.85,1126.98 687.25,1141.09 687.86,1155.07C688.56,1161.42 688.8,1167.81 689.83,1174.13C690.31,1176.06 690.66,1178.02 691.14,1179.98C691.41,1181.62 691.67,1183.31 692.07,1184.96C693.42,1191.69 695.2,1198.34 697.3,1204.88C697.42,1205.42 697.65,1206.51 697.77,1207.06C698.14,1208.04 698.5,1209.05 698.86,1210.08C699.15,1211.07 699.45,1212.09 699.74,1213.12C700.21,1214.36 700.67,1215.64 701.15,1216.91C702.08,1219.6 703.12,1222.27 704.22,1224.91C705.38,1227.74 706.65,1230.53 707.78,1233.39L708.65,1233.66C708.59,1234.09 708.47,1234.95 708.4,1235.38L709.7,1235.61C709.62,1236.05 709.47,1236.93 709.39,1237.36L710.16,1237.45C710.88,1238.68 711.63,1239.89 712.41,1241.12C712.43,1241.34 712.45,1241.8 712.47,1242.03C713.49,1243.35 714.5,1244.69 715.55,1246.04C715.49,1246.38 715.37,1247.07 715.31,1247.41L716.29,1247.35C716.75,1248.37 717.23,1249.4 717.7,1250.44L718.3,1250.47C718.76,1251.49 719.24,1252.51 719.73,1253.55L720.62,1253.54C720.65,1253.86 720.7,1254.5 720.73,1254.83C722.62,1256.89 724.23,1259.19 725.78,1261.53L726.19,1261.62C727.01,1262.9 728.01,1264.07 728.84,1265.38L729.31,1265.4C729.51,1265.77 729.91,1266.52 730.11,1266.9C731.69,1268.64 733.29,1270.36 734.95,1272.05C735.95,1273.17 736.95,1274.3 737.94,1275.47L738.18,1275.37C738.55,1275.73 739.27,1276.43 739.63,1276.79L739.35,1277.56L740.6,1277.32L740.6,1278.07C743.05,1280.12 745.32,1282.39 747.82,1284.4C748.92,1285.15 750,1285.94 751.1,1286.73C754.27,1289.01 757.49,1291.23 760.85,1293.23C761.93,1293.95 763,1294.66 764.07,1295.44C764.4,1295.42 765.06,1295.39 765.39,1295.38L765.66,1296.62C766.09,1296.56 766.95,1296.45 767.38,1296.39L767.61,1297.66C768.04,1297.6 768.91,1297.48 769.34,1297.42L769.59,1298.63C769.94,1298.61 770.65,1298.58 771.01,1298.56C771.92,1299.14 772.85,1299.73 773.79,1300.32C776.9,1301.6 779.96,1302.99 782.98,1304.51C783.23,1304.53 783.73,1304.58 783.99,1304.6C785.25,1305.17 786.54,1305.71 787.84,1306.29C791.57,1307.52 795.27,1308.9 799.09,1309.9C800.67,1310.35 802.26,1310.74 803.85,1311.24C804.92,1311.43 806,1311.64 807.09,1311.87C808.71,1312.27 810.36,1312.6 812.01,1312.96C815.7,1313.6 819.38,1314.4 823.1,1314.9C824.73,1315.3 826.39,1315.64 828.04,1316.05C837.61,1317.46 847.25,1318.55 856.94,1318.62C861.64,1318.68 866.33,1317.94 871.03,1318.25C876.66,1318.47 882.37,1318.92 887.95,1317.9C893.7,1317.76 899.35,1316.61 905.07,1316.15C906.7,1315.69 908.35,1315.33 910.01,1314.95C919.03,1313.55 928.13,1312.43 936.92,1309.84C942.24,1308.72 947.15,1306.34 952.13,1304.25C953.73,1303.43 955.34,1302.63 956.92,1301.77C958.57,1301.08 960.24,1300.42 961.92,1299.81C963.66,1299.14 965.36,1298.35 967.03,1297.51C967.36,1297.53 968.02,1297.57 968.36,1297.58L968.63,1296.41C968.98,1296.44 969.68,1296.49 970.03,1296.52C970.56,1296.22 971.6,1295.62 972.13,1295.33C977.05,1292.31 981.61,1288.76 986.23,1285.3C988.28,1283.58 990.25,1281.77 992.33,1280.08L992.47,1279.7C992.81,1279.48 993.49,1279.04 993.83,1278.82C995.97,1276.96 997.99,1274.97 999.91,1272.89C1000.11,1272.52 1000.52,1271.8 1000.72,1271.43L1001.08,1271.39C1002.95,1269.07 1005.01,1266.9 1006.88,1264.57L1007.12,1264.39C1008.82,1262.21 1010.67,1260.18 1012.56,1258.17C1012.59,1257.91 1012.67,1257.39 1012.71,1257.12C1013.41,1256.39 1014.11,1255.67 1014.81,1254.94C1016.54,1252.39 1018.37,1249.89 1019.79,1247.14C1020.6,1245.72 1021.45,1244.32 1022.36,1242.96C1022.38,1242.7 1022.43,1242.17 1022.45,1241.9C1023.14,1240.95 1023.83,1240.02 1024.54,1239.1C1024.51,1238.73 1024.44,1237.99 1024.41,1237.61L1025.67,1237.39C1025.61,1236.96 1025.47,1236.1 1025.4,1235.66L1026.19,1235.4C1027.8,1231.61 1029.63,1227.94 1031.34,1224.21C1032.2,1222.1 1033.07,1220.01 1033.94,1217.91C1034.38,1216.65 1034.8,1215.39 1035.28,1214.16C1035.87,1212.1 1036.48,1210.06 1037.11,1208.02C1037.45,1206.69 1037.8,1205.37 1038.2,1204.08C1039.15,1200.39 1040.23,1196.75 1041.13,1193.06C1041.44,1191.39 1041.75,1189.72 1042.17,1188.09C1042.44,1186.39 1042.72,1184.73 1043.12,1183.08C1046.32,1169.62 1046.34,1155.76 1047.19,1142.05C1047.14,1138.37 1047.41,1134.66 1046.83,1131.02C1046.61,1122.02 1046.68,1112.96 1044.94,1104.08C1042.04,1085.11 1038,1066.27 1032.14,1047.98C1030.49,1042.43 1028.49,1037 1026.19,1031.71C1015.36,1035.07 1003.94,1034.44 992.9,1036.51C967.78,1039.95 942.17,1039.85 917.08,1036.22C898.61,1033.3 879.91,1029.14 863.4,1020.05C841.56,1027.42 817.7,1029.31 795.21,1023.82C776.05,1019.57 756.77,1010.34 745.19,993.94C738.61,994.22 732.03,993.67 725.57,992.47C721.62,999.26 718.99,1006.7 715.78,1013.84M688.64,1306.62C677.25,1319.5 668.91,1335.61 667.33,1352.91C665.61,1369.38 670.48,1386.01 679.23,1399.92C678.19,1400.92 677.18,1401.97 676.2,1403.04C660.83,1404.03 646.15,1414.49 641.62,1429.44C638.2,1439.95 640.35,1451.81 646.65,1460.81C639.97,1469.59 637.18,1481.38 640.21,1492.1C643.95,1506.28 656.4,1516.93 670.21,1520.85C688.39,1526.37 709.98,1521.18 722.33,1506.37C730.54,1496.79 733.36,1482.78 728.85,1470.9C726.4,1463.77 721.35,1457.97 715.79,1453.05C715.89,1452.34 716.08,1450.92 716.17,1450.2C718.11,1450.8 720.05,1451.49 722.04,1451.98C726.3,1453.77 728.7,1458.09 731.15,1461.78C737.56,1472.66 738.67,1486.25 734.19,1498.07C734.8,1506.83 736.43,1515.58 737.48,1524.34C735.79,1526.83 733.39,1529.06 730.19,1529.07C711.09,1529.64 691.97,1530.22 672.86,1529.96C669.76,1530.45 668.93,1526.63 666.34,1525.86C651.38,1520.89 638.12,1508.81 634.39,1493.14C631.27,1482.19 633.75,1470.25 639.49,1460.6C636.54,1455.33 634.9,1449.44 634.15,1443.49C627.75,1452.02 621.55,1460.74 616.41,1470.1C597.99,1502.61 589.72,1540.91 594.17,1578.08C598.18,1613.86 613.88,1647.76 636.61,1675.48C656.66,1700.14 682.08,1720.03 709.74,1735.49C714.5,1752.41 722.6,1769.04 735.87,1780.91C767.94,1781.06 800.04,1781.05 832.11,1780.91C835.27,1778.56 837.59,1775.27 840.22,1772.38C857.51,1773.33 874.86,1773.2 892.11,1771.62C894.97,1774.75 897.47,1778.33 900.88,1780.91C932.95,1781.06 965.05,1781.06 997.12,1780.91C1011.64,1767.75 1020.48,1749.1 1024.23,1730.03C1024.41,1728.5 1026.11,1727.99 1027.16,1727.17C1057.99,1707.9 1085.02,1682.02 1103.79,1650.75C1124.09,1617.21 1133.53,1577.01 1128.84,1537.98C1125,1503.47 1110.23,1470.74 1088.88,1443.55C1088.06,1449.48 1086.46,1455.35 1083.51,1460.6C1092.52,1474.86 1091.94,1494.27 1081.8,1507.8C1075.23,1516.74 1065.61,1523.02 1055.17,1526.53C1054.4,1528.72 1052.85,1531.34 1050.12,1530.96C1031.01,1531.22 1011.9,1530.65 992.81,1530.07C989.6,1530.06 987.21,1527.83 985.53,1525.34C986.65,1516.51 988.04,1507.7 988.98,1498.85C987.64,1493.66 985.86,1488.49 986,1483.06C986.17,1473.73 989.28,1464.37 995.09,1457.02C996.72,1455.01 998.4,1452.83 1000.96,1452C1002.85,1451.53 1004.67,1450.84 1006.52,1450.18C1006.75,1450.9 1007.21,1452.33 1007.44,1453.05C999.11,1459.55 992.98,1469.23 992.14,1479.9C990.98,1491.56 996.31,1503.28 1005.05,1510.9C1018.36,1522.77 1038.22,1525.99 1054.92,1520.18C1068.2,1515.73 1079.89,1504.94 1083.06,1491C1085.65,1480.57 1082.78,1469.29 1076.35,1460.81C1080.09,1455.23 1082.63,1448.77 1082.93,1442.03C1083.7,1430.48 1078.26,1418.89 1069.19,1411.79C1063.19,1406.83 1055.64,1404.06 1047.97,1403.15C1046.26,1403.16 1045.51,1401.41 1044.36,1400.48C1051.93,1388.76 1056.72,1375.07 1056.98,1361.05C1057.38,1346.03 1052.54,1331.18 1044.43,1318.64C1034.45,1303.09 1020.21,1290.75 1004.78,1280.82C999.8,1285.83 994.61,1290.68 988.99,1294.95C984.67,1297.14 981.14,1300.51 977,1302.97C971.37,1305.93 965.55,1308.55 959.47,1310.45C951.48,1313.62 943.83,1317.91 935.23,1319.24C930.78,1321.17 925.88,1320.99 921.25,1322.18C918.35,1322.97 915.3,1322.52 912.41,1323.3C899.79,1326.04 886.86,1326.77 873.98,1326.4C865.27,1325.75 856.56,1327.05 847.87,1326.93C841.91,1325.53 835.73,1326.63 829.79,1325.25C824.8,1324.69 819.99,1322.89 814.94,1322.85C810.98,1322.57 807.28,1321.01 803.48,1320.01C799.06,1320.04 795.11,1317.84 790.94,1316.71C780.78,1314.25 771.8,1308.62 762.09,1304.94C757.93,1302.51 754.1,1299.53 749.86,1297.23C740.88,1291.69 733.44,1284.13 726.12,1276.63C712.29,1284.77 699.18,1294.43 688.64,1306.62Z" style="fill-rule:nonzero;stroke:black;stroke-width:0.49px;"/>
        <path d="M787.26,1113.28C792.38,1106.18 801.52,1102.93 810.06,1104.26L810.07,1105.53C809.85,1107.75 810.48,1110.25 812.68,1111.29C815.23,1112.82 818.3,1111.67 820.29,1109.77C831.31,1118.67 831.79,1137.01 821.86,1146.92C814.64,1154.81 801.67,1156.31 792.92,1150.1C781.04,1142.34 778.48,1124.29 787.26,1113.28M805.31,1111.46C803.56,1112.24 803.6,1114.83 805.38,1115.58C807.39,1117.04 811.19,1114.77 809.67,1112.31C808.67,1111 806.71,1110.6 805.31,1111.46Z" style="fill-rule:nonzero;stroke:black;stroke-width:0.49px;"/>
        <path d="M922.64,1117.61C927.89,1111.54 936.27,1109.12 944.08,1110.26L944.08,1111.48C943.72,1113.98 944.78,1116.76 947.36,1117.6C949.65,1118.69 951.97,1117.34 954,1116.31L954.73,1116.04C964.46,1124.51 965.67,1140.58 957.78,1150.68C953.26,1156.78 945.62,1160.53 937.99,1159.92C930.17,1159.47 922.97,1154.53 919.27,1147.7C913.92,1138.29 915.25,1125.57 922.64,1117.61M939.31,1117.46C938.25,1117.96 937.35,1119.71 938.39,1120.65C939.71,1122.77 943.24,1122.26 944.05,1119.94C944.24,1117.51 941.16,1116.25 939.31,1117.46Z" style="fill-rule:nonzero;stroke:black;stroke-width:0.49px;"/>
        <path d="M841.43,1223.82C843.23,1223.29 845.09,1222.91 847,1222.98C860.01,1223.01 873.02,1223.01 886.04,1222.98C887.91,1222.9 889.77,1223.3 891.57,1223.84C884.39,1230.68 876.48,1236.71 869,1243.21C869.09,1248.79 868.81,1254.38 869.1,1259.97C874.36,1273.26 893.78,1276.5 903.92,1266.88C905.66,1264.75 908.24,1264.25 910.87,1264.34C903.38,1276.14 886.21,1279.46 874.66,1271.81C871.33,1269.7 868.85,1266.62 866.52,1263.53C864.18,1266.63 861.67,1269.69 858.35,1271.8C846.7,1279.55 829.26,1276.07 821.93,1263.99C827.45,1263.86 830.45,1269.15 835.31,1270.77C845.6,1275.25 859.69,1270.72 863.9,1259.95C864.18,1254.37 863.91,1248.79 864,1243.21C856.53,1236.69 848.59,1230.68 841.43,1223.82Z" style="fill-rule:nonzero;stroke:black;stroke-width:0.49px;"/>
        <path d="M873.82,826.91C895.06,815.83 919.72,812.23 943.42,814.79C961.54,816.85 979.62,822.58 994.46,833.42C1005.05,841.2 1014.01,852.29 1016.36,865.51C1017.63,872.23 1016.88,879.18 1014.83,885.67C1032.66,894.12 1048.36,909.98 1051.42,930.12C1051.55,932.63 1053.99,933.88 1055.5,935.57C1066.9,946.57 1073.22,963.08 1070.32,978.85C1067.61,994.92 1056.3,1008.46 1042.45,1016.49C1032.01,1022.62 1020.06,1026.04 1008,1026.81C1000.21,1026.87 992.62,1028.86 984.88,1029.51C957.46,1032.28 929.55,1031.31 902.55,1025.61C889.16,1022.62 875.81,1018.48 864.07,1011.23C842.6,1019.81 818.48,1021.12 796.01,1016C777.68,1011.65 759.06,1002.34 749.24,985.56C734.27,987.05 718.4,984.62 705.58,976.41C698.17,971.7 691.72,964.17 691.07,955.1C690.47,949.04 693.04,943.29 696.47,938.47C688.65,926.93 684.19,912.92 685.13,898.92C686.02,882.52 694.11,867.18 705.4,855.5C723.26,836.94 747.64,825.88 772.5,820.29C805.97,812.98 841.64,814.91 873.82,826.91Z" style="fill:rgb(245,245,245);fill-rule:nonzero;stroke:rgb(245,245,245);stroke-width:0.49px;"/>
        <path d="M1070.78,941.98C1072.82,942.67 1074.91,943.43 1076.95,944.21C1077.98,944.67 1079.02,945.14 1080.09,945.63C1083.44,947.32 1086.8,949 1090.12,950.78C1096.54,954.65 1102.92,958.63 1108.86,963.24C1112.24,965.81 1115.48,968.57 1118.74,971.31C1119,971.61 1119.52,972.22 1119.78,972.52L1120.22,972.4C1128.46,979.79 1135.36,988.48 1141.67,997.53C1150.15,1009.02 1155.64,1022.3 1161.56,1035.19C1164.73,1045.26 1168.24,1055.23 1170.59,1065.54C1172.78,1072.75 1172.78,1080.36 1174.51,1087.66C1174.95,1091.75 1175.07,1095.88 1175.78,1099.96C1176.72,1105.02 1175.66,1110.21 1173.95,1115C1172.29,1117.29 1170.27,1119.3 1167.82,1120.74C1166.6,1121.28 1165.37,1121.81 1164.19,1122.39C1163.61,1122.47 1162.44,1122.64 1161.85,1122.72C1154.96,1125.71 1147.31,1125.54 1139.96,1125.74C1132.62,1126.74 1125.17,1126.55 1117.79,1126.14C1114.13,1125.42 1110.39,1125.42 1106.69,1125.28L1106.65,1124.68C1101.76,1124.81 1097.01,1123.68 1092.19,1123.19C1083.99,1121.71 1075.88,1119.92 1067.98,1117.25C1064.51,1116.04 1061.06,1114.81 1057.64,1113.49C1057.14,1113.41 1056.14,1113.24 1055.65,1113.15C1055.01,1111.63 1054.43,1110.1 1053.89,1108.58C1054.23,1105.74 1053.82,1102.93 1052.88,1100.27C1053.4,1096.34 1051.34,1092.83 1050.82,1089.05C1049.58,1083.57 1049.52,1077.8 1047.44,1072.54C1043.63,1057.99 1040.56,1043.15 1034.32,1029.37C1044.02,1025.05 1053.66,1019.95 1060.99,1012.1C1072.2,1001.57 1078.7,986.36 1079,971.03C1078.84,960.85 1075.82,950.8 1070.78,941.98Z" style="fill:rgb(245,245,245);fill-rule:nonzero;stroke:rgb(245,245,245);stroke-width:0.49px;"/>
        <path d="M672.84,954.79C675.27,954.14 677.69,953.45 680.11,952.72C680.8,952.6 682.17,952.36 682.86,952.23C683.07,962.77 688.05,973.14 696.46,979.56C702.58,984.57 709.76,988.13 717.32,990.39C714.72,993.71 713.77,997.86 711.9,1001.57C708.6,1008.8 705.64,1016.18 702.12,1023.29C699.8,1026.34 700.23,1030.5 697.85,1033.56C696.19,1040.97 691.69,1047.45 690.82,1055.09C688.16,1064.7 686.18,1074.46 683.56,1084.09C681.78,1093.62 680.59,1103.25 679.09,1112.83C678.83,1117.23 679.29,1121.64 679,1126.04C679.5,1130 674.64,1130.09 672.02,1131.25C664.13,1133.93 656.01,1135.7 647.82,1137.19C643,1137.68 638.24,1138.81 633.36,1138.67L633.35,1139.28C629.63,1139.42 625.87,1139.42 622.21,1140.14C614.49,1140.63 606.71,1140.64 599.03,1139.69C592,1139.67 584.81,1139.4 578.18,1136.85C576.12,1136.41 574.15,1135.69 572.28,1134.75C571.45,1134.24 570.61,1133.76 569.78,1133.29C568.47,1131.88 567.23,1130.43 566.02,1128.96C564.35,1124.18 563.27,1119 564.22,1113.95C565.22,1108.27 564.93,1102.43 566.45,1096.84C567.75,1083.23 571.62,1070.03 575.94,1057.12C578.31,1047.61 583.21,1039.05 587.27,1030.22C592.76,1018.38 600.63,1007.86 608.8,997.77C612.02,993.57 616.07,990.14 619.78,986.4L620.22,986.53C620.48,986.23 620.98,985.63 621.23,985.34C624.73,982.37 628.24,979.43 631.88,976.65C636.83,972.93 642.03,969.53 647.33,966.33C648.17,965.81 649.02,965.29 649.87,964.78C653.19,963.01 656.55,961.32 659.91,959.61C660.94,959.14 661.99,958.68 663.06,958.24C664.35,957.72 665.66,957.23 666.97,956.74C667.93,956.41 668.9,956.08 669.87,955.76C670.85,955.43 671.84,955.11 672.84,954.79Z" style="fill:rgb(245,245,245);fill-rule:nonzero;stroke:rgb(245,245,245);stroke-width:0.49px;"/>
        <path d="M715.78,1013.84C718.99,1006.7 721.62,999.26 725.57,992.47C732.03,993.67 738.61,994.22 745.19,993.94C756.77,1010.34 776.05,1019.57 795.21,1023.82C817.7,1029.31 841.56,1027.42 863.4,1020.05C879.91,1029.14 898.61,1033.3 917.08,1036.22C942.17,1039.85 967.78,1039.95 992.9,1036.51C1003.94,1034.44 1015.36,1035.07 1026.19,1031.71C1028.49,1037 1030.49,1042.43 1032.14,1047.98C1038,1066.27 1042.04,1085.11 1044.94,1104.08C1046.68,1112.96 1046.61,1122.02 1046.83,1131.02C1047.41,1134.66 1047.14,1138.37 1047.19,1142.05C1046.34,1155.76 1046.32,1169.62 1043.12,1183.08C1042.72,1184.73 1042.44,1186.39 1042.17,1188.09C1041.75,1189.72 1041.44,1191.39 1041.13,1193.06C1040.23,1196.75 1039.15,1200.39 1038.2,1204.08C1037.8,1205.37 1037.45,1206.69 1037.11,1208.02C1036.48,1210.06 1035.87,1212.1 1035.28,1214.16C1034.8,1215.39 1034.38,1216.65 1033.94,1217.91C1033.07,1220.01 1032.2,1222.1 1031.34,1224.21C1029.63,1227.94 1027.8,1231.61 1026.19,1235.4L1025.4,1235.66C1025.47,1236.1 1025.61,1236.96 1025.67,1237.39L1024.41,1237.61C1024.44,1237.99 1024.51,1238.73 1024.54,1239.1C1023.83,1240.02 1023.14,1240.95 1022.45,1241.9C1022.43,1242.17 1022.38,1242.7 1022.36,1242.96C1021.45,1244.32 1020.6,1245.72 1019.79,1247.14C1018.37,1249.89 1016.54,1252.39 1014.81,1254.94C1014.11,1255.67 1013.41,1256.39 1012.71,1257.12C1012.67,1257.39 1012.59,1257.91 1012.56,1258.17C1010.67,1260.18 1008.82,1262.21 1007.12,1264.39L1006.88,1264.57C1005.01,1266.9 1002.95,1269.07 1001.08,1271.39L1000.72,1271.43C1000.52,1271.8 1000.11,1272.52 999.91,1272.89C997.99,1274.97 995.97,1276.96 993.83,1278.82C993.49,1279.04 992.81,1279.48 992.47,1279.7L992.33,1280.08C990.25,1281.77 988.28,1283.58 986.23,1285.3C981.61,1288.76 977.05,1292.31 972.13,1295.33C971.6,1295.62 970.56,1296.22 970.03,1296.52C969.68,1296.49 968.98,1296.44 968.63,1296.41L968.36,1297.58C968.02,1297.57 967.36,1297.53 967.03,1297.51C965.36,1298.35 963.66,1299.14 961.92,1299.81C960.24,1300.42 958.57,1301.08 956.92,1301.77C955.34,1302.63 953.73,1303.43 952.13,1304.25C947.15,1306.34 942.24,1308.72 936.92,1309.84C928.13,1312.43 919.03,1313.55 910.01,1314.95C908.35,1315.33 906.7,1315.69 905.07,1316.15C899.35,1316.61 893.7,1317.76 887.95,1317.9C882.37,1318.92 876.66,1318.47 871.03,1318.25C866.33,1317.94 861.64,1318.68 856.94,1318.62C847.25,1318.55 837.61,1317.46 828.04,1316.05C826.39,1315.64 824.73,1315.3 823.1,1314.9C819.38,1314.4 815.7,1313.6 812.01,1312.96C810.36,1312.6 808.71,1312.27 807.09,1311.87C806,1311.64 804.92,1311.43 803.85,1311.24C802.26,1310.74 800.67,1310.35 799.09,1309.9C795.27,1308.9 791.57,1307.52 787.84,1306.29C786.54,1305.71 785.25,1305.17 783.99,1304.6C783.73,1304.58 783.23,1304.53 782.98,1304.51C779.96,1302.99 776.9,1301.6 773.79,1300.32C772.85,1299.73 771.92,1299.14 771.01,1298.56C770.65,1298.58 769.94,1298.61 769.59,1298.63L769.34,1297.42C768.91,1297.48 768.04,1297.6 767.61,1297.66L767.38,1296.39C766.95,1296.45 766.09,1296.56 765.66,1296.62L765.39,1295.38C765.06,1295.39 764.4,1295.42 764.07,1295.44C763,1294.66 761.93,1293.95 760.85,1293.23C757.49,1291.23 754.27,1289.01 751.1,1286.73C750,1285.94 748.92,1285.15 747.82,1284.4C745.32,1282.39 743.05,1280.12 740.6,1278.07L740.6,1277.32L739.35,1277.56L739.63,1276.79C739.27,1276.43 738.55,1275.73 738.18,1275.37L737.94,1275.47C736.95,1274.3 735.95,1273.17 734.95,1272.05C733.29,1270.36 731.69,1268.64 730.11,1266.9C729.91,1266.52 729.51,1265.77 729.31,1265.4L728.84,1265.38C728.01,1264.07 727.01,1262.9 726.19,1261.62L725.78,1261.53C724.23,1259.19 722.62,1256.89 720.73,1254.83C720.7,1254.5 720.65,1253.86 720.62,1253.54L719.73,1253.55C719.24,1252.51 718.76,1251.49 718.3,1250.47L717.7,1250.44C717.23,1249.4 716.75,1248.37 716.29,1247.35L715.31,1247.41C715.37,1247.07 715.49,1246.38 715.55,1246.04C714.5,1244.69 713.49,1243.35 712.47,1242.03C712.45,1241.8 712.43,1241.34 712.41,1241.12C711.63,1239.89 710.88,1238.68 710.16,1237.45L709.39,1237.36C709.47,1236.93 709.62,1236.05 709.7,1235.61L708.4,1235.38C708.47,1234.95 708.59,1234.09 708.65,1233.66L707.78,1233.39C706.65,1230.53 705.38,1227.74 704.22,1224.91C703.12,1222.27 702.08,1219.6 701.15,1216.91C700.67,1215.64 700.21,1214.36 699.74,1213.12C699.45,1212.09 699.15,1211.07 698.86,1210.08C698.5,1209.05 698.14,1208.04 697.77,1207.06C697.65,1206.51 697.42,1205.42 697.3,1204.88C695.2,1198.34 693.42,1191.69 692.07,1184.96C691.67,1183.31 691.41,1181.62 691.14,1179.98C690.66,1178.02 690.31,1176.06 689.83,1174.13C688.8,1167.81 688.56,1161.42 687.86,1155.07C687.25,1141.09 686.85,1126.98 688.1,1113.04C688.31,1110.04 688.51,1107.03 689.13,1104.09C690.16,1098.1 690.67,1092 692.21,1086.11C692.73,1082.73 693.27,1079.35 694.17,1076.06C696.59,1066.29 698.38,1056.31 702.15,1046.94C704.17,1041.19 706.47,1035.56 708.75,1029.93C709.77,1027.59 710.69,1025.23 711.78,1022.94C713.19,1019.94 714.51,1016.9 715.78,1013.84M800.38,1069.47C788.56,1071.41 778.98,1080.11 773.37,1090.35C764.27,1107.19 763.7,1128.18 771.37,1145.67C776.22,1156.37 784.8,1166.11 796.35,1169.56C804.92,1172.36 814.51,1170.81 822.17,1166.22C829.63,1161.79 835.19,1154.72 838.99,1147.03C848.13,1127.59 846.9,1103.16 834.49,1085.42C827.11,1074.54 813.71,1067.06 800.38,1069.47M934.35,1075.48C922.55,1077.42 912.97,1086.11 907.38,1096.35C898.03,1113.62 897.67,1135.27 905.99,1153.01C911.76,1165.17 923,1175.73 936.91,1176.86C951.34,1178.17 964.57,1168.55 971.25,1156.3C982.32,1136.44 981.57,1110.17 968.5,1091.43C961.11,1080.53 947.69,1073.05 934.35,1075.48M841.43,1223.82C848.59,1230.68 856.53,1236.69 864,1243.21C863.91,1248.79 864.18,1254.37 863.9,1259.95C859.69,1270.72 845.6,1275.25 835.31,1270.77C830.45,1269.15 827.45,1263.86 821.93,1263.99C829.26,1276.07 846.7,1279.55 858.35,1271.8C862.14,1277.29 870.86,1277.3 874.66,1271.81C886.21,1279.46 903.38,1276.14 910.87,1264.34C908.24,1264.25 905.66,1264.75 903.92,1266.88C893.78,1276.5 874.36,1273.26 869.1,1259.97C868.81,1254.38 869.09,1248.79 869,1243.21C876.48,1236.71 884.39,1230.68 891.57,1223.84C889.77,1223.3 887.91,1222.9 886.04,1222.98C873.02,1223.01 860.01,1223.01 847,1222.98C845.09,1222.91 843.23,1223.29 841.43,1223.82Z" style="fill:rgb(251,219,197);fill-rule:nonzero;stroke:rgb(251,219,197);stroke-width:0.49px;"/>
        <path d="M800.38,1069.47C813.71,1067.06 827.11,1074.54 834.49,1085.42C846.9,1103.16 848.13,1127.59 838.99,1147.03C835.19,1154.72 829.63,1161.79 822.17,1166.22C814.51,1170.81 804.92,1172.36 796.35,1169.56C784.8,1166.11 776.22,1156.37 771.37,1145.67C763.7,1128.18 764.27,1107.19 773.37,1090.35C778.98,1080.11 788.56,1071.41 800.38,1069.47M799.52,1072.65C787.61,1075.27 778.65,1085.14 773.91,1095.97C766.18,1113.98 767.46,1136.12 778.63,1152.44C784.91,1161.68 795.55,1168.74 807.07,1167.95C819.29,1167.29 829.55,1158.44 835.12,1148C845.19,1129.18 844.3,1104.56 831.96,1086.98C824.92,1076.75 812.09,1069.7 799.52,1072.65Z" style="fill:rgb(224,175,141);fill-rule:nonzero;stroke:rgb(224,175,141);stroke-width:0.49px;"/>
        <path d="M934.35,1075.48C947.69,1073.05 961.11,1080.53 968.5,1091.43C981.57,1110.17 982.32,1136.44 971.25,1156.3C964.57,1168.55 951.34,1178.17 936.91,1176.86C923,1175.73 911.76,1165.17 905.99,1153.01C897.67,1135.27 898.03,1113.62 907.38,1096.35C912.97,1086.11 922.55,1077.42 934.35,1075.48M933.49,1078.65C921.86,1081.23 913.01,1090.74 908.22,1101.27C900.51,1118.53 901.26,1139.64 911.01,1155.95C916.23,1164.62 924.68,1171.94 934.9,1173.62C943.38,1175.12 952.21,1172.2 958.76,1166.75C970.84,1156.66 976.2,1140.38 975.99,1125C975.71,1109.78 969.93,1093.78 957.54,1084.31C950.8,1079.14 941.85,1076.74 933.49,1078.65Z" style="fill:rgb(224,175,141);fill-rule:nonzero;stroke:rgb(224,175,141);stroke-width:0.49px;"/>
        <path d="M799.52,1072.65C812.09,1069.7 824.92,1076.75 831.96,1086.98C844.3,1104.56 845.19,1129.18 835.12,1148C829.55,1158.44 819.29,1167.29 807.07,1167.95C795.55,1168.74 784.91,1161.68 778.63,1152.44C767.46,1136.12 766.18,1113.98 773.91,1095.97C778.65,1085.14 787.61,1075.27 799.52,1072.65M799.47,1091.7C792.31,1093.34 786.06,1097.97 781.78,1103.86C770.82,1118.82 771.45,1141.28 783.57,1155.41C789.49,1162.44 798.75,1166.82 808.02,1165.88C819.34,1164.87 828.77,1156.39 833.24,1146.27C840.52,1130.23 837.2,1109.18 823.4,1097.66C816.88,1092.15 807.83,1089.7 799.47,1091.7Z" style="fill:white;fill-rule:nonzero;stroke:white;stroke-width:0.49px;"/>
        <path d="M933.49,1078.65C941.85,1076.74 950.8,1079.14 957.54,1084.31C969.93,1093.78 975.71,1109.78 975.99,1125C976.2,1140.38 970.84,1156.66 958.76,1166.75C952.21,1172.2 943.38,1175.12 934.9,1173.62C924.68,1171.94 916.23,1164.62 911.01,1155.95C901.26,1139.64 900.51,1118.53 908.22,1101.27C913.01,1090.74 921.86,1081.23 933.49,1078.65M933.48,1097.7C926.81,1099.22 920.9,1103.35 916.69,1108.68C904.94,1123.43 905.11,1146.37 917.14,1160.9C924.66,1170.5 938.58,1174.95 949.96,1169.87C960.54,1165.42 967.63,1154.96 969.99,1143.96C973.14,1129.62 968.92,1113.22 957.4,1103.66C950.88,1098.15 941.83,1095.7 933.48,1097.7Z" style="fill:white;fill-rule:nonzero;stroke:white;stroke-width:0.49px;"/>
        <path d="M810.07,1105.53C811.54,1102.27 815.96,1100.85 818.89,1103.08C821.13,1104.51 821.44,1107.53 820.29,1109.77C818.3,1111.67 815.23,1112.82 812.68,1111.29C810.48,1110.25 809.85,1107.75 810.07,1105.53Z" style="fill:white;fill-rule:nonzero;stroke:white;stroke-width:0.49px;"/>
        <path d="M944.08,1111.48C945.66,1107.98 950.66,1106.76 953.45,1109.55C955.49,1111.24 955.16,1114.19 954,1116.31C951.97,1117.34 949.65,1118.69 947.36,1117.6C944.78,1116.76 943.72,1113.98 944.08,1111.48Z" style="fill:white;fill-rule:nonzero;stroke:white;stroke-width:0.49px;"/>
        <path d="M805.31,1111.46C806.71,1110.6 808.67,1111 809.67,1112.31C811.19,1114.77 807.39,1117.04 805.38,1115.58C803.6,1114.83 803.56,1112.24 805.31,1111.46Z" style="fill:white;fill-rule:nonzero;stroke:white;stroke-width:0.49px;"/>
        <path d="M939.31,1117.46C941.16,1116.25 944.24,1117.51 944.05,1119.94C943.24,1122.26 939.71,1122.77 938.39,1120.65C937.35,1119.71 938.25,1117.96 939.31,1117.46Z" style="fill:white;fill-rule:nonzero;stroke:white;stroke-width:0.49px;"/>
        <path d="M799.47,1091.7C807.83,1089.7 816.88,1092.15 823.4,1097.66C837.2,1109.18 840.52,1130.23 833.24,1146.27C828.77,1156.39 819.34,1164.87 808.02,1165.88C798.75,1166.82 789.49,1162.44 783.57,1155.41C771.45,1141.28 770.82,1118.82 781.78,1103.86C786.06,1097.97 792.31,1093.34 799.47,1091.7M810.07,1105.53L810.06,1104.26C801.52,1102.93 792.38,1106.18 787.26,1113.28C778.48,1124.29 781.04,1142.34 792.92,1150.1C801.67,1156.31 814.64,1154.81 821.86,1146.92C831.79,1137.01 831.31,1118.67 820.29,1109.77C821.44,1107.53 821.13,1104.51 818.89,1103.08C815.96,1100.85 811.54,1102.27 810.07,1105.53Z" style="fill:rgb(43,43,43);fill-rule:nonzero;stroke:rgb(43,43,43);stroke-width:0.49px;"/>
        <path d="M933.48,1097.7C941.83,1095.7 950.88,1098.15 957.4,1103.66C968.92,1113.22 973.14,1129.62 969.99,1143.96C967.63,1154.96 960.54,1165.42 949.96,1169.87C938.58,1174.95 924.66,1170.5 917.14,1160.9C905.11,1146.37 904.94,1123.43 916.69,1108.68C920.9,1103.35 926.81,1099.22 933.48,1097.7M944.08,1111.48L944.08,1110.26C936.27,1109.12 927.89,1111.54 922.64,1117.61C915.25,1125.57 913.92,1138.29 919.27,1147.7C922.97,1154.53 930.17,1159.47 937.99,1159.92C945.62,1160.53 953.26,1156.78 957.78,1150.68C965.67,1140.58 964.46,1124.51 954.73,1116.04L954,1116.31C955.16,1114.19 955.49,1111.24 953.45,1109.55C950.66,1106.76 945.66,1107.98 944.08,1111.48Z" style="fill:rgb(43,43,43);fill-rule:nonzero;stroke:rgb(43,43,43);stroke-width:0.49px;"/>
        <path d="M858.35,1271.8C861.67,1269.69 864.18,1266.63 866.52,1263.53C868.85,1266.62 871.33,1269.7 874.66,1271.81C870.86,1277.3 862.14,1277.29 858.35,1271.8Z" style="fill:rgb(229,92,111);fill-rule:nonzero;stroke:rgb(229,92,111);stroke-width:0.49px;"/>
        <path d="M688.64,1306.62C699.18,1294.43 712.29,1284.77 726.12,1276.63C733.44,1284.13 740.88,1291.69 749.86,1297.23C754.1,1299.53 757.93,1302.51 762.09,1304.94C771.8,1308.62 780.78,1314.25 790.94,1316.71C795.11,1317.84 799.06,1320.04 803.48,1320.01C807.28,1321.01 810.98,1322.57 814.94,1322.85C819.99,1322.89 824.8,1324.69 829.79,1325.25C835.73,1326.63 841.91,1325.53 847.87,1326.93C856.56,1327.05 865.27,1325.75 873.98,1326.4C886.86,1326.77 899.79,1326.04 912.41,1323.3C915.3,1322.52 918.35,1322.97 921.25,1322.18C925.88,1320.99 930.78,1321.17 935.23,1319.24C943.83,1317.91 951.48,1313.62 959.47,1310.45C965.55,1308.55 971.37,1305.93 977,1302.97C981.14,1300.51 984.67,1297.14 988.99,1294.95C994.61,1290.68 999.8,1285.83 1004.78,1280.82C1020.21,1290.75 1034.45,1303.09 1044.43,1318.64C1052.54,1331.18 1057.38,1346.03 1056.98,1361.05C1056.72,1375.07 1051.93,1388.76 1044.36,1400.48C1045.51,1401.41 1046.26,1403.16 1047.97,1403.15C1055.64,1404.06 1063.19,1406.83 1069.19,1411.79C1078.26,1418.89 1083.7,1430.48 1082.93,1442.03C1082.63,1448.77 1080.09,1455.23 1076.35,1460.81C1082.78,1469.29 1085.65,1480.57 1083.06,1491C1079.89,1504.94 1068.2,1515.73 1054.92,1520.18C1038.22,1525.99 1018.36,1522.77 1005.05,1510.9C996.31,1503.28 990.98,1491.56 992.14,1479.9C992.98,1469.23 999.11,1459.55 1007.44,1453.05C1007.21,1452.33 1006.75,1450.9 1006.52,1450.18C1004.67,1450.84 1002.85,1451.53 1000.96,1452C998.4,1452.83 996.72,1455.01 995.09,1457.02C989.28,1464.37 986.17,1473.73 986,1483.06C985.86,1488.49 987.64,1493.66 988.98,1498.85C988.04,1507.7 986.65,1516.51 985.53,1525.34C987.21,1527.83 989.6,1530.06 992.81,1530.07C1011.9,1530.65 1031.01,1531.22 1050.12,1530.96C1052.85,1531.34 1054.4,1528.72 1055.17,1526.53C1065.61,1523.02 1075.23,1516.74 1081.8,1507.8C1091.94,1494.27 1092.52,1474.86 1083.51,1460.6C1086.46,1455.35 1088.06,1449.48 1088.88,1443.55C1110.23,1470.74 1125,1503.47 1128.84,1537.98C1133.53,1577.01 1124.09,1617.21 1103.79,1650.75C1085.02,1682.02 1057.99,1707.9 1027.16,1727.17C1026.11,1727.99 1024.41,1728.5 1024.23,1730.03C1020.48,1749.1 1011.64,1767.75 997.12,1780.91C965.05,1781.06 932.95,1781.06 900.88,1780.91C897.47,1778.33 894.97,1774.75 892.11,1771.62C874.86,1773.2 857.51,1773.33 840.22,1772.38C837.59,1775.27 835.27,1778.56 832.11,1780.91C800.04,1781.05 767.94,1781.06 735.87,1780.91C722.6,1769.04 714.5,1752.41 709.74,1735.49C682.08,1720.03 656.66,1700.14 636.61,1675.48C613.88,1647.76 598.18,1613.86 594.17,1578.08C589.72,1540.91 597.99,1502.61 616.41,1470.1C621.55,1460.74 627.75,1452.02 634.15,1443.49C634.9,1449.44 636.54,1455.33 639.49,1460.6C633.75,1470.25 631.27,1482.19 634.39,1493.14C638.12,1508.81 651.38,1520.89 666.34,1525.86C668.93,1526.63 669.76,1530.45 672.86,1529.96C691.97,1530.22 711.09,1529.64 730.19,1529.07C733.39,1529.06 735.79,1526.83 737.48,1524.34C736.43,1515.58 734.8,1506.83 734.19,1498.07C738.67,1486.25 737.56,1472.66 731.15,1461.78C728.7,1458.09 726.3,1453.77 722.04,1451.98C720.05,1451.49 718.11,1450.8 716.17,1450.2C716.08,1450.92 715.89,1452.34 715.79,1453.05C721.35,1457.97 726.4,1463.77 728.85,1470.9C733.36,1482.78 730.54,1496.79 722.33,1506.37C709.98,1521.18 688.39,1526.37 670.21,1520.85C656.4,1516.93 643.95,1506.28 640.21,1492.1C637.18,1481.38 639.97,1469.59 646.65,1460.81C640.35,1451.81 638.2,1439.95 641.62,1429.44C646.15,1414.49 660.83,1404.03 676.2,1403.04C677.18,1401.97 678.19,1400.92 679.23,1399.92C670.48,1386.01 665.61,1369.38 667.33,1352.91C668.91,1335.61 677.25,1319.5 688.64,1306.62Z" style="fill:rgb(244,244,244);fill-rule:nonzero;stroke:rgb(244,244,244);stroke-width:0.49px;"/>
    </g>
</svg>
