<?xml version="1.0" encoding="utf-8"?>
<!DOCTYPE svg PUBLIC "-//W3C//DTD SVG 1.1//EN" "http://www.w3.org/Graphics/SVG/1.1/DTD/svg11.dtd">
<svg version="1.1" id="Layer_1" xmlns="http://www.w3.org/2000/svg" xmlns:xlink="http://www.w3.org/1999/xlink" x="0px" y="0px"
	 viewBox="-5.22 174.9564 1622.2776 1314.9464" enable-background="new -5.22 174.9564 1622.2776 1314.9464" xml:space="preserve">
<g id="_x23_ffffffff">
</g>
<g id="_x23_000000ff">
	<path stroke="#000000" stroke-width="0.0938" d="M740.68,242.67c10.15-7.25,23.2-9.08,35.37-7.72c14.99,1.8,29.43,7.58,41.79,16.21
		c3.0099,2.03,5.54,4.99,9.23,5.8c9.64,2.75,17.94,10.01,21.5,19.42c0.57,21.5-2.67,42.87-5.07,64.18
		c-1.44,2.58-3.38,4.92-4.07,7.85c-5.08,16.83-13.19,32.99-25.18,45.97c0.57,5.11,0.12,10.25,0.3,15.37
		c5.68,17.91,15.09,34.47,20.01,52.66c2.79,10.33,4.12,21.34,1.81,31.9c-3.68,16.42-18.88,27.28-22.24,43.88
		c15.13,8.03,29.19,18.85,46.22,22.61c9.45,2.32,19.14,0.21,28.6801-0.15c13.02-0.6801,25.5,4.03,37.3,9.0099
		c13.76,5.9301,26.89,13.39,41.23,17.9301c9.58,3.02,20.04,4.54,29.9,1.98c8.46-3.12,14.49-10.3,20.02-17.1
		c12.4501-15.97,22.24-33.78,33.3201-50.68c8.6-13.4,18.96-25.57,29.84-37.15c13.5-14.15,28.9399-26.64,46.37-35.63
		c23.97-12.47,51.13-17.77,78-17.99c11.6799,0.16,23.62-0.18,34.96,3.1c7.23,1.83,14.52,4.07,22.0701,3.83
		c7.45-0.15,15.0699-3.24,19.58-9.37c4.98-6.65,10.79-13.1,18.51-16.57c3.8,0.12,6.38,4.4,6.17,7.95
		c-0.01,7.87-5.1101,16.28-0.24,23.66c16.1899-8.46,31.8799-17.9,47.97-26.56c61.6-33.98,123.98-66.53,185.5499-100.56
		c1.91-2.07,5.87,1.23,2.9401,2.86c-67.34,61.07-141.62,114.06-207.8101,176.44c-1.2999,0.88-0.4299,2.46-0.2,3.64
		c2.5599,8.6,4.37,17.62,3.51,26.63c-0.61,6.44-4.65,11.77-7.75,17.23c-5,8.13-9.39,16.88-10.76,26.43
		c-4.36,26.01,1.54,52.18,1.65,78.26c-0.17,9.09-0.8201,18.65-5.42,26.73c-3.08,5.59-8.54,9.6-14.55,11.54
		c-7.4399,2.42-15.4399,2.49-23.1499,1.8c-4.9501-0.76-6.5901-6.26-7.4501-10.46c-1.23-5.66-1.6599-12.93-7.6599-15.73
		c-4.62,4.1-2.4801,10.83-2.9301,16.21c0.12,3.11-1.15,7.43-4.9399,7.39c-3.92-0.25-8.0801-0.1299-11.66-1.92
		c-3.73-1.95-5.91-5.86-7-9.77c-2.86-9.94-1.6801-20.54-4.61-30.46c-0.26-1.8-2.27-1.93-3.61-2.42
		c-8.41-2.13-17.2201-2.4901-25.8201-1.65c-5.24,8.64-5.42,19.11-4.16,28.84c1.0601,9.5699,2.55,19.2599,0.9701,28.86
		c-1.75,12.68-6.4701,25.15-5.05,38.12c2.02,19.75,15.83,36.07,17.45,55.91c2.25,19.78-0.86,39.81-6.99,58.65
		c-5.6,17.71-12.9399,34.81-18.6499,52.49c-0.9601,2.03,0.2,4.11,0.99,5.99c2.2699,5.12,6.7799,8.98,11.9099,11.08
		c10.37,4.32,22.0901,3.89,32.3301,8.61c10.51,4.85,19.65,12.25,30.4,16.64c19.86,8.15,41.86,1.49,62.3199,6.58
		c13.55,2.97,24.6899,12.33,32.9399,23.12c12.26,15.86,20.66,34.18,30.4401,51.5699c7.34,13.15,15.3,26.26,26.26,36.76
		c6.33,6.0701,13.84,10.97,22.15,13.88c1.26,10.1901,4.47,20.22,10.14,28.84c8.9199,14.1001,22.5299,24.1801,33.7799,36.25
		c8.85,9.2301,16.01,20.4301,18.92,33c0.1799,1.14,0.95,2.8101-0.54,3.4601c-14.58,9.51-34.4399,11.24-50.0699,3.27
		c-10.39-5.2001-17.16-16.53-16.8-28.15c-0.4299-4.73,1.25-9.34,1.34-13.98c-5.21-9.0901-15.3099-13.27-23.62-18.89
		c-3.0099-2.25-6.6699-4.2001-8.2799-7.75c-8.52-20.4501-18.8101-40.24-31.4601-58.4601c-9.5599-13.47-20.38-26.6599-34.6599-35.34
		c-17.38-10.03-37.66-12.92-57.2201-15.71c-44.8999-5.3-89.7699-11.84-135.0299-12.73c-0.5701,11.11,3.46,21.95,9.59,31.07
		c9.22,13.8101,21.65,25.01,33.23,36.78c10.79,10.86,21.5,22.55,26.99,37.1c2.98,4.8,2.61,10.53,3.3301,15.9301
		c2.23,20.48,5.87,40.99,13.2599,60.2999c5.7301,15.11,13.9701,29.3,24.55,41.54c1.77,1.51,1.35,3.9301,1.58,6.02
		c0.78,12.1699,4.1801,24.08,9.28,35.12c6.63,14.5699,15.51,28.13,20.41,43.47c2.73,8.5601,4.4299,17.5,4.51,26.52
		c-6.5601,1.3099-13.34,0.6-19.6901-1.36c-12.35-3.66-23.36-10.55-34.95-16c-1.41-13.75,0.12-27.88,5.5599-40.65
		c-2.6399-11.98-14.8899-17.1801-22.6-25.36c-1.64-17.04-4.03-34.16-9.24-50.5601c-6.45-21.0199-16.65-40.7799-29.38-58.6699
		c-22.9299-32.26-52.84-58.5-80.34-86.6801c-18.1801-18.15-34.13-38.6-54.1901-54.81c-7.58-5.96-16.12-11.79-26.08-12.29
		c-13.2-0.81-26.36,1.85-39.57,0.86c-25.13-1.15-50.23-5.78-75.42-3.58c-9.8,0.55-18.33,5.71-26.56,10.56
		c-7.51,4.5601-16.22,6.3101-24.69,8.16c-19.24,3.95-39.21,3.89-58.5,0.25c-23.7-4.39-46.24-13.21-68.89-21.21
		c-11.14-4.06-22.43-7.72-33.73-11.32c-17.82,50.66-28.79,104.13-54.47,151.75c-6.04,11.29-13.56,21.85-18.11,33.88
		c-2.99,7.4401-3.19,15.86-0.53,23.4301c3.84,11.35,13.11,19.7899,22.91,26.15c17.81,11.6,38.07,18.72,56.18,29.8199
		c7.03,4.4,13.89,9.38,19.06,15.96c4.58,5.74,7.26,12.7101,9.5,19.63c7.01,22.7001,8.66,46.75,16.61,69.2001
		c3.28,9.97,11.89,17.2899,14.3199,27.61c0.66,3.49,1.4,7.49-0.69,10.6599c-3.1,5.65-8.1,10.75-14.6,12.15
		c-7.01,1.67-14.26-0.6699-20.37-4.0699c-9.08-5.21-16.65-12.9301-22.1-21.84c-2.1-3.7001-4.26-7.54-5.02-11.76
		c1.6-10.77,6.54-21.0901,14.19-28.89c-9.93-15.8101-22.36-29.85-35.36-43.1801c-12.17-12.52-25.08-24.2899-38.1801-35.8199
		c-8.72-7.6-16.5099-16.35-26.17-22.8201c-13.07-7.8999-27.92-12.01-41.75-18.3099c-9.34-4.3101-18.88-9.38-25.26-17.7101
		c-6.08-7.84-7.55-18.6299-4.79-28.0299c5-16.0701,19.06-26.79,26.81-41.3401c6-10.5399,7.47-22.84,7.98-34.75
		c0.39-9.5699,1.79-19.0699,4.26-28.3099c-15.5,0.09-31.36,3.96-43.98,13.27c-15.71,11.37-25.59,28.5599-34.86,45.1699
		c-2.03,3.25-3.26,7.2001-6.49,9.53c-26.54,21.59-48.98,48.78-62.74,80.26c-17.94,40.87-20.78,87.97-8.86,130.9
		c9.42,36.01,27.08,69.54,33.47,106.39c-10.51,0.08-21.02,0.03-31.53,0.02c-1.91-8.6901-11.53-11.65-15.18-19.2301
		c-2.02-3.98-3.13-8.5299-2.48-12.99c0.77-7.98,4.34-15.6799,3.38-23.7799c-1.54-8.13-8.17-13.8301-14.25-18.8101
		c-7.28-5.98-15.2-12.17-18.73-21.23c-3.18-8.24-2.42-17.3201-1.51-25.91c1.85-14.88,5.44-29.48,7.28-44.36
		c4.64-35.61-1.6-71.33-1.87-106.98c0.27-13.52,0.68-28.5601,9.97-39.36c13.34-15.8201,32.89-24.03,49.84-35.15
		c0.73-2.63-0.09-5.53,0.79-8.17c2.94-11.1899,11.33-20.12,13.76-31.5c1.54-7.4199-1.29-14.8099-4.48-21.39
		c-5.12-10.24-11.25-20.03-15.07-30.88c-5.14-14.54-8.33-29.68-11.09-44.83c-3.41-19.4-5.78-38.99-7.01-58.65
		c-1.45-24.13-1.72-48.54,2.36-72.44c1.25-8.85,4.62-17.18,8.75-25.04c3.43-6.48,5.8-14.18,3.14-21.37
		c-2.49-8.38-10.19-13.39-17.3-17.57c-2.86-1.55-5.33-3.8799-8.39-4.98c-13.21,1.86-25.66,7.87-35.73,16.55
		c-10.85,9.17-19.34,20.67-28.79,31.19c-1.45,1.88-4.01,2.15-6.16,1.55c-0.54-2.77-0.26-5.66-0.99-8.3799
		c-0.87-1.29-2.63-0.9301-3.45,0.18c-26.64,24.39-49.91,52.14-76.09,76.99c-18.41,17.44-38.32,33.64-60.79,45.58
		c-9.43-1.09-18.71,2.02-26.71,6.83c-12.33,6.97-23.9,16.34-38.24,18.76c-17.5,2.62-36.13-5.04-46.78-19.17
		c-8.78-11.35-11.61-26.57-9.08-40.54c1.92-9.54,7.86-17.68,14.66-24.39c12.36-12.48,27.7-21.49,40.16-33.85
		c12.32-12.63,19.29-29.61,32.67-41.32c9.98-8.95,22.36-15.83,29.28-27.71c5.12-9.35,6.44-20.47,12.86-29.16
		c9.94-13.82,22.12-25.92,35.24-36.72c13.49-10.84,28.14-20.73,44.62-26.38c11.65-4.1,24.19-3.55,36.35-3.57
		c7.06,0.18,14.22,0.2,21.12,1.85c13.83,3.66,25.32,12.73,35.96,21.92c13.51,11.68,26.53,24.49,42.85,32.27
		c13.88,6.8,30.11,8.54,45.14,5.01c14.75-4.57,25.59-16.65,39.91-22.2c22.69-8.81,46.88-13.08,71.03-15.29
		c45.42-4.11,91.08-0.88,136.35,3.47c-4.07-7.2-8.72-14.17-11.44-22.04c-4.27-11.86-4.33-24.76-2.85-37.14
		c0.87-8.4,4.02-16.3799,8.09-23.71c6.02-11.1,14.33-21.19,17.63-33.59c3.02-12.57,2.54-25.64,1.39-38.41
		c-0.27-0.03-0.8-0.09-1.07-0.11c-5.66,4.66-9.94,11.44-10.54,18.85c-0.24,4.7,6.02,5.7,6.46,10c-5.1-0.97-11.26-4.12-11.52-9.98
		c0.43-6.49,6.03-11.36,6.25-17.96c-13.12,5.89-18.33,21.09-30.69,28.03c-2.08,1.24-4.42,1.95-6.74,2.54
		c13.58-14.08,17.78-33.92,28.84-49.65c-3.14,1.4-6.81,2.32-8.95,5.23c-5.29,6.58-11.67,13.04-20.23,14.91
		c2.05-2.45,4.3-4.76,6.04-7.45c-9.22,6-16.64,15.29-19.35,26.06c-1.18,6.83-2.04,13.77-1.28,20.71c0.38,6.6,2.08,13.73-0.96,19.96
		c-1.52,3.3199-5,4.84-8.29,5.8c3.3199-3.74,5.91-8.99,3.6-13.93c-4.64-10.16-15.49-16.51-26.2-18.34
		c0.3,4.95,0.68,10.72-2.95,14.65c-2.35,2.72-6.19,3.14-9.56,3.2c-5.36,0.11-11.25-0.71-15.22-4.67c6.2-0.51,12.95,1.5,18.72-1.55
		c2.98-1.71,2.51-5.65,1.39-8.35c-2.37-5.81-6.36-10.88-10.83-15.22c-3.3199-1.14-6.8199-2.06-9.38-4.63
		c1.73-0.08,3.48-0.15,5.23-0.18c-5.55-7.11-9.26-16.1-7.97-25.24c0.24-4.13,2.24-7.84,3.11-11.79c-3.67-7.94-4.5-17.19-1.36-25.45
		c2.61-8.23,9.6-14.07,12.5-22.17c-4.08,1.77-6.47,5.67-9.45,8.75c1.61-10.45,5.64-21.75,15.34-27.29c0-3.27,0.35-6.81-1.3-9.77
		c-0.86-1.7-3.04-2.31-4.68-1.41c-4.01,1.77-6.31,5.7-9.37,8.63c1.5-8.39,4-17.26,10.31-23.36c5.37-5.12,12.88-6.82,20.01-7.76
		c-2.22-6.16-3.53-12.81-2.1201-19.32c1.51-8.97,7.29-16.3,13.01-23.04c12.13-15,29.63-24.55,41.35-39.96
		c-2.85,1.01-5.58,2.67-8.7,2.56c1.13-2.65,3.1-4.79,5.14-6.78c8.06-7.97,16.88-15.12,25.28-22.71c8.22-7.71,9.56-19.44,13.89-29.29
		C722.52,256.39,731.71,249.14,740.68,242.67 M1199.86,572.96c-0.11,15.23-0.04,30.46-0.04,45.69
		c2.9601-0.34,5.9801-0.66,8.9501-0.09c4.34,0.61,8.47,2.75,12.9399,2.29c1.6001-0.28,3.8301-1.1,3.98-3.0099
		c1.1901-10.4301,0.13-21.76-5.7999-30.71C1215.24,580.11,1207.6801,575.63,1199.86,572.96z"/>
</g>
</svg>
